<svg width="140" height="140" viewBox="0 0 140 140" fill="none" xmlns="http://www.w3.org/2000/svg">
<defs>
<linearGradient id="paint0_linear" x1="0" y1="0" x2="62.7172" y2="28.5042" gradientUnits="userSpaceOnUse">
<stop stop-color="#7433FF"/>
<stop offset="1" stop-color="#FFA3FD"/>
</linearGradient>
</defs>
<circle cx="26.0133" cy="26.0133" r="26.0133" fill="url(#paint0_linear)"/>
<path d="M116.496 0C118.623 2.12696 119.687 3.19045 120.507 4.16344C129.929 15.3357 129.929 31.6716 120.507 42.8439C119.687 43.8169 118.623 44.8803 116.496 47.0073L23.5036 140C21.3767 137.873 20.3132 136.81 19.4927 135.837C10.071 124.664 10.071 108.328 19.4927 97.1562C20.3132 96.1832 21.3767 95.1197 23.5036 92.9927L116.496 0Z" fill="#FCFCFC"/>
<path d="M85.3752 122.153C90.1129 127.122 96.7974 130.218 104.205 130.218C118.572 130.218 130.218 118.572 130.218 104.205C130.218 96.7976 127.122 90.1132 122.153 85.3755L85.3752 122.153Z" fill="#FCFCFC"/>
</svg>
