<svg width="611" height="117" viewBox="0 0 611 117" fill="none" xmlns="http://www.w3.org/2000/svg">
<path d="M44.4 34.8C52.2 34.8 59.15 36.5 65.25 39.9C71.45 43.3 76.3 48.1 79.8 54.3C83.3 60.5 85.05 67.65 85.05 75.75C85.05 83.85 83.3 91.05 79.8 97.35C76.3 103.55 71.45 108.35 65.25 111.75C59.15 115.15 52.2 116.85 44.4 116.85C38.9 116.85 33.85 115.9 29.25 114C24.75 112.1 20.95 109.25 17.85 105.45V115.8H0V4.5H18.75V45.45C21.95 41.95 25.7 39.3 30 37.5C34.4 35.7 39.2 34.8 44.4 34.8ZM42.3 100.8C49.2 100.8 54.85 98.5 59.25 93.9C63.75 89.3 66 83.25 66 75.75C66 68.25 63.75 62.2 59.25 57.6C54.85 53 49.2 50.7 42.3 50.7C37.8 50.7 33.75 51.75 30.15 53.85C26.55 55.85 23.7 58.75 21.6 62.55C19.5 66.35 18.45 70.75 18.45 75.75C18.45 80.75 19.5 85.15 21.6 88.95C23.7 92.75 26.55 95.7 30.15 97.8C33.75 99.8 37.8 100.8 42.3 100.8Z" fill="#1B2034"/>
<path d="M181.132 35.7V115.8H163.282V105.45C160.182 109.25 156.332 112.1 151.732 114C147.232 115.9 142.232 116.85 136.732 116.85C128.932 116.85 121.932 115.15 115.732 111.75C109.632 108.35 104.832 103.55 101.332 97.35C97.932 91.15 96.232 83.95 96.232 75.75C96.232 67.55 97.932 60.4 101.332 54.3C104.832 48.1 109.632 43.3 115.732 39.9C121.932 36.5 128.932 34.8 136.732 34.8C141.932 34.8 146.682 35.7 150.982 37.5C155.382 39.3 159.182 41.95 162.382 45.45V35.7H181.132ZM138.832 100.8C145.732 100.8 151.432 98.5 155.932 93.9C160.432 89.3 162.682 83.25 162.682 75.75C162.682 68.25 160.432 62.2 155.932 57.6C151.432 53 145.732 50.7 138.832 50.7C131.932 50.7 126.232 53 121.732 57.6C117.332 62.2 115.132 68.25 115.132 75.75C115.132 83.25 117.332 89.3 121.732 93.9C126.232 98.5 131.932 100.8 138.832 100.8Z" fill="#1B2034"/>
<path d="M223.514 47.4C228.914 39 238.414 34.8 252.014 34.8V52.65C250.414 52.35 248.964 52.2 247.664 52.2C240.364 52.2 234.664 54.35 230.564 58.65C226.464 62.85 224.414 68.95 224.414 76.95V115.8H205.664V35.7H223.514V47.4Z" fill="#1B2034"/>
<path d="M345.488 35.7V115.8H327.638V105.45C324.538 109.25 320.688 112.1 316.087 114C311.587 115.9 306.587 116.85 301.087 116.85C293.288 116.85 286.288 115.15 280.087 111.75C273.987 108.35 269.188 103.55 265.688 97.35C262.288 91.15 260.587 83.95 260.587 75.75C260.587 67.55 262.288 60.4 265.688 54.3C269.188 48.1 273.987 43.3 280.087 39.9C286.288 36.5 293.288 34.8 301.087 34.8C306.288 34.8 311.038 35.7 315.337 37.5C319.737 39.3 323.538 41.95 326.738 45.45V35.7H345.488ZM303.188 100.8C310.087 100.8 315.788 98.5 320.288 93.9C324.788 89.3 327.038 83.25 327.038 75.75C327.038 68.25 324.788 62.2 320.288 57.6C315.788 53 310.087 50.7 303.188 50.7C296.288 50.7 290.587 53 286.087 57.6C281.688 62.2 279.487 68.25 279.487 75.75C279.487 83.25 281.688 89.3 286.087 93.9C290.587 98.5 296.288 100.8 303.188 100.8Z" fill="#1B2034"/>
<path d="M415.02 111.45C412.82 113.25 410.12 114.6 406.92 115.5C403.82 116.4 400.52 116.85 397.02 116.85C388.22 116.85 381.42 114.55 376.62 109.95C371.82 105.35 369.42 98.65 369.42 89.85V18H388.17V36.3H409.62V51.3H388.17V89.4C388.17 93.3 389.12 96.3 391.02 98.4C393.02 100.4 395.77 101.4 399.27 101.4C403.47 101.4 406.97 100.3 409.77 98.1L415.02 111.45Z" fill="#1B2034"/>
<path d="M430.518 35.7H449.268V115.8H430.518V35.7ZM439.968 22.5C436.568 22.5 433.718 21.45 431.418 19.35C429.118 17.15 427.968 14.45 427.968 11.25C427.968 8.05 429.118 5.4 431.418 3.29999C433.718 1.1 436.568 0 439.968 0C443.368 0 446.218 1.05 448.518 3.15C450.818 5.15 451.968 7.7 451.968 10.8C451.968 14.1 450.818 16.9 448.518 19.2C446.318 21.4 443.468 22.5 439.968 22.5Z" fill="#1B2034"/>
<path d="M518.877 111.45C516.677 113.25 513.977 114.6 510.777 115.5C507.677 116.4 504.377 116.85 500.877 116.85C492.077 116.85 485.277 114.55 480.477 109.95C475.677 105.35 473.277 98.65 473.277 89.85V18H492.027V36.3H513.477V51.3H492.027V89.4C492.027 93.3 492.977 96.3 494.877 98.4C496.877 100.4 499.627 101.4 503.127 101.4C507.327 101.4 510.827 100.3 513.627 98.1L518.877 111.45Z" fill="#1B2034"/>
<path d="M567.738 116.85C559.638 116.85 552.338 115.1 545.838 111.6C539.338 108.1 534.238 103.25 530.538 97.05C526.938 90.75 525.138 83.65 525.138 75.75C525.138 67.85 526.938 60.8 530.538 54.6C534.238 48.4 539.338 43.55 545.838 40.05C552.338 36.55 559.638 34.8 567.738 34.8C575.938 34.8 583.288 36.55 589.788 40.05C596.288 43.55 601.338 48.4 604.938 54.6C608.638 60.8 610.488 67.85 610.488 75.75C610.488 83.65 608.638 90.75 604.938 97.05C601.338 103.25 596.288 108.1 589.788 111.6C583.288 115.1 575.938 116.85 567.738 116.85ZM567.738 100.8C574.638 100.8 580.338 98.5 584.838 93.9C589.338 89.3 591.588 83.25 591.588 75.75C591.588 68.25 589.338 62.2 584.838 57.6C580.338 53 574.638 50.7 567.738 50.7C560.838 50.7 555.138 53 550.638 57.6C546.238 62.2 544.038 68.25 544.038 75.75C544.038 83.25 546.238 89.3 550.638 93.9C555.138 98.5 560.838 100.8 567.738 100.8Z" fill="#1B2034"/>
</svg>
